PathFileType	4	(X/Y/Z)	 s08c0202.trc
DataRate	CameraRate	NumFrames	NumMarkers	Units	OrigDataRate	OrigDataStartFrame	OrigNumFrames
200	200	4	50	mm	200	751	2000
Frame#	Time	racr			lacr			c7			jug			rlel			rdr			llel			ldr			s2			lic			ric			lasi			rasi			rpsi			lpsi			rgt			lgt			rth1			rth2			rth3			rth4			rlfc			rmfc			rsh1			rsh2			rsh3			rsh4			rlmal			rmmal			rcal			rtoe			rmt5			lth1			lth2			lth4			lth3			llfc			lmfc			llmal			lmmal			lcal			lmt5			lsh1			lsh2			lsh3			lsh4			ltoe			SBIKE			LBIKE			RBIKE			
		X1	Y1	Z1	X2	Y2	Z2	X3	Y3	Z3	X4	Y4	Z4	X5	Y5	Z5	X6	Y6	Z6	X7	Y7	Z7	X8	Y8	Z8	X9	Y9	Z9	X10	Y10	Z10	X11	Y11	Z11	X12	Y12	Z12	X13	Y13	Z13	X14	Y14	Z14	X15	Y15	Z15	X16	Y16	Z16	X17	Y17	Z17	X18	Y18	Z18	X19	Y19	Z19	X20	Y20	Z20	X21	Y21	Z21	X22	Y22	Z22	X23	Y23	Z23	X24	Y24	Z24	X25	Y25	Z25	X26	Y26	Z26	X27	Y27	Z27	X28	Y28	Z28	X29	Y29	Z29	X30	Y30	Z30	X31	Y31	Z31	X32	Y32	Z32	X33	Y33	Z33	X34	Y34	Z34	X35	Y35	Z35	X36	Y36	Z36	X37	Y37	Z37	X38	Y38	Z38	X39	Y39	Z39	X40	Y40	Z40	X41	Y41	Z41	X42	Y42	Z42	X43	Y43	Z43	X44	Y44	Z44	X45	Y45	Z45	X46	Y46	Z46	X47	Y47	Z47	X48	Y48	Z48	X49	Y49	Z49	X50	Y50	Z50	
751	3.7550	552.234264	1331.888258	-19.840169	574.416790	1354.125391	-354.474917	533.760401	1423.554396	-177.882808	524.412842	1262.027883	-193.944707	544.528354	1081.768255	95.514990	764.098322	929.221768	-40.875319	552.365784	1110.947658	-506.070227	754.457205	943.686626	-418.635214	-11.202961	1204.784569	-248.269610	158.871747	1204.511339	-388.824888	126.737430	1215.809173	-75.571585	179.710460	1150.567714	-357.616326	163.937853	1171.029735	-114.042391	9.627553	1250.150807	-198.053006	21.296816	1249.954290	-291.467989	79.595104	1123.764804	-39.015540	87.423731	1077.048588	-418.787825	229.724695	1047.437256	-38.503178	317.811149	1032.236610	-38.624721	384.017970	976.165980	-40.801937	332.773136	1063.940701	-50.926829	475.957155	912.096164	-56.467956	462.357947	901.523843	-176.053076	383.065640	829.455671	-31.626603	345.394651	749.324666	-50.594762	274.981296	700.228040	-54.728126	372.015338	732.756967	-76.378925	192.287257	612.703431	-62.440921	219.612914	621.932019	-148.504063	110.608187	624.938813	-109.700328	361.003004	461.119598	-99.976742	267.389437	483.943456	-34.734654	140.227431	951.597608	-434.707337	191.486345	880.350781	-436.212978	224.994490	892.708734	-426.582374	199.080932	791.640671	-434.111368	232.225901	668.605896	-407.880826	230.639958	643.292681	-305.690087	214.411480	252.617778	-407.210584	242.932189	271.990175	-325.818267	154.077782	244.283633	-369.118240	345.992530	140.900872	-414.746137	216.476740	539.841819	-435.063965	238.503490	458.189130	-420.256405	217.495569	372.151483	-418.974997	261.701813	461.469453	-387.538839	429.451101	156.819608	-342.891026	-141.396391	939.111071	-224.390099	18.413874	83.503863	-426.204759	11.440288	80.715078	-27.817828	
752	3.7600	549.431580	1330.567297	-16.559548	575.599144	1354.089824	-350.709799	533.399197	1421.594442	-174.543290	524.006150	1260.042230	-190.346728	543.045040	1079.334274	96.498838	763.972845	929.472573	-40.579642	555.256270	1113.061802	-505.552278	755.172780	943.347092	-418.962955	-11.920110	1205.746538	-251.284418	159.548848	1203.026181	-390.995492	124.901823	1216.964893	-78.572054	179.365227	1149.164921	-359.808289	162.657054	1172.193811	-115.776723	8.499803	1251.170237	-200.801750	20.507591	1250.448191	-294.719508	78.997431	1127.515505	-40.067170	86.056849	1076.579111	-420.823593	229.121880	1051.580571	-40.854268	317.305602	1037.105951	-41.003766	383.888224	981.553597	-43.132319	331.986082	1068.910737	-53.515072	477.380947	918.481546	-59.701532	463.370914	907.777774	-177.948490	386.451997	834.143100	-32.650075	350.175071	753.248003	-51.267890	280.797639	702.876519	-54.929411	376.932634	737.158336	-77.232859	198.976650	613.404265	-62.235200	226.397605	622.981233	-148.199399	116.566542	623.330544	-109.228340	371.519796	466.744578	-99.945816	277.406566	486.728903	-34.646243	137.486344	950.828763	-436.825709	188.282768	879.255215	-439.201878	222.016099	891.429136	-429.784020	195.299034	790.479654	-436.551179	228.844753	667.679510	-408.742366	228.426529	642.757508	-306.057509	204.890386	251.855882	-406.795047	233.629306	270.698001	-325.024916	144.554092	244.024266	-368.408325	335.307381	138.759299	-414.846216	211.540085	538.993159	-435.071353	232.234472	457.195433	-420.239117	209.828695	371.442656	-418.559238	255.651360	460.100533	-387.518907	419.109778	153.864863	-343.120539	-141.459373	939.091691	-224.430232	18.423007	83.506688	-426.206096	11.434053	80.781158	-27.802560	
753	3.7650	546.621469	1329.193795	-13.338250	576.692005	1353.664896	-346.858987	533.279379	1419.598635	-171.521026	523.236929	1258.042417	-186.907778	541.515027	1077.136173	97.533892	763.783379	929.639090	-40.291960	558.056349	1114.873958	-504.948923	755.874737	942.932233	-419.496311	-12.607239	1206.947378	-254.013964	159.799936	1201.793203	-392.770888	123.009358	1218.338963	-81.091468	178.778539	1147.994147	-362.004422	160.997902	1174.753503	-119.216981	8.874573	1252.519281	-204.246486	20.577961	1251.181495	-298.061064	78.081558	1130.958573	-42.113201	84.476272	1076.226506	-422.668644	228.994992	1056.706484	-41.623070	316.455773	1041.766011	-43.426109	383.328425	986.649527	-45.147680	331.068556	1073.591265	-55.889557	477.467280	924.300357	-61.486618	463.714215	913.258674	-179.873123	389.344944	837.936640	-33.786578	354.576627	756.548424	-52.105947	286.051204	704.772472	-55.214215	381.293259	740.810301	-78.305290	205.410682	613.057192	-62.090089	231.644430	623.125618	-148.477260	122.114593	620.380533	-108.831430	382.084403	472.194980	-99.948905	287.411477	489.112265	-34.471418	134.965733	950.243111	-438.847527	185.587165	878.459841	-441.837489	219.508279	890.518824	-432.784037	192.408812	789.754700	-438.707878	226.647656	667.099482	-409.296658	227.108533	642.449459	-306.087798	195.229473	251.833552	-406.263585	224.281482	270.113486	-323.915001	134.858033	244.295786	-367.515570	324.532671	137.049194	-414.980345	207.289711	538.792534	-434.840391	226.496067	456.659686	-419.994717	202.387261	371.318590	-417.852267	250.126151	459.056141	-387.303476	408.585634	151.494984	-343.397016	-141.542830	939.071215	-224.577056	18.415560	83.439298	-426.265939	11.421998	80.725311	-27.830714	
754	3.7700	543.789571	1327.817709	-10.397604	577.790232	1352.706499	-343.050845	533.029041	1417.179604	-168.532186	522.597145	1255.587743	-183.303115	540.239339	1074.916071	98.276424	763.687443	929.918439	-39.890609	560.756431	1116.309707	-504.398761	756.581754	942.502599	-420.185981	-13.251833	1208.266083	-256.735559	159.829724	1200.779395	-394.658073	121.080430	1220.070010	-82.932138	178.931809	1147.316329	-364.923230	158.317358	1178.088246	-118.078396	8.743617	1253.927483	-207.424540	20.404920	1252.196547	-300.919243	77.107011	1134.801457	-44.178503	82.651944	1076.006262	-424.382763	228.042227	1060.783411	-43.885271	315.334112	1045.941870	-45.664513	382.346834	990.919698	-47.033006	329.969637	1077.942478	-57.961981	476.957591	929.117132	-63.355683	463.218940	917.881810	-181.880948	391.868667	841.252480	-34.699461	358.185506	758.941147	-53.185704	290.713484	705.887659	-55.660152	385.082526	743.768962	-79.387546	211.239161	611.812434	-62.127908	236.811636	622.417092	-148.714401	127.283343	616.105842	-108.544048	392.502979	477.504234	-99.922993	297.371058	490.778523	-34.357179	132.833993	949.679474	-440.700790	183.467067	877.915520	-443.991419	217.559195	890.224122	-435.531769	190.435425	789.311956	-440.308038	225.755714	667.135493	-409.495565	226.825382	642.569603	-305.666348	185.541068	252.412733	-405.482581	215.275971	270.188998	-322.989972	125.055370	245.120890	-366.436554	313.453595	136.640940	-415.063651	203.937847	539.024192	-434.271676	221.264180	456.577380	-419.382877	195.243315	371.803537	-416.944836	245.215629	458.526238	-386.882851	397.928798	149.667052	-343.588366	-141.626874	939.090063	-224.825969	18.404581	83.430826	-426.247933	11.435049	80.785799	-27.850121	
